<?xml version="1.0" encoding="UTF-8" standalone="no"?>
<svg
   xmlns:dc="http://purl.org/dc/elements/1.1/"
   xmlns:cc="http://creativecommons.org/ns#"
   xmlns:rdf="http://www.w3.org/1999/02/22-rdf-syntax-ns#"
   xmlns:svg="http://www.w3.org/2000/svg"
   xmlns="http://www.w3.org/2000/svg"
   id="svg2"
   version="1.1"
   width="607.5"
   height="607.5"
   viewBox="0 0 607.5 607.5">
  <metadata
     id="metadata8">
    <rdf:RDF>
      <cc:Work
         rdf:about="">
        <dc:format>image/svg+xml</dc:format>
        <dc:type
           rdf:resource="http://purl.org/dc/dcmitype/StillImage" />
        <dc:title></dc:title>
      </cc:Work>
    </rdf:RDF>
  </metadata>
  <defs
     id="defs6" />
  <path
     style="fill:#000000"
     d=""
     id="path4149" />
  <path
     style="fill:#000000"
     d=""
     id="path4147" />
  <path
     style="fill:#000000"
     d=""
     id="path4145" />
  <path
     style="fill:#e62325;fill-opacity:1"
     d="m 288.60082,513.41551 c -9.26434,-0.92155 -31.17317,-5.55792 -45.80806,-9.69397 -35.34754,-9.98977 -66.03823,-25.45859 -84.28249,-42.48033 -8.99103,-8.38856 -11.91621,-12.44567 -11.90518,-16.51193 0.0197,-7.24418 7.97546,-18.61549 19.46654,-27.82371 3.59935,-2.8843 9.32262,-7.48964 12.71838,-10.2341 13.31615,-10.76216 30.45974,-20.72857 53.75242,-31.24894 24.40143,-11.02113 62.73022,-25.15698 68.21221,-25.15698 8.6061,0 39.36151,-9.35956 80.45772,-24.48508 18.39826,-6.77151 69.96924,-24.02572 71.81029,-24.02572 0.32929,0 -2.49617,1.62525 -6.27881,3.61166 -3.78263,1.98642 -10.05276,5.85626 -13.93363,8.59965 -9.59016,6.77929 -25.16721,22.59554 -32.48984,32.98875 -7.3874,10.48514 -15.31481,17.62955 -65.26374,58.81762 -25.10381,20.7007 -30.98234,26.96823 -36.86991,39.30969 -4.58105,9.60274 -6.15257,15.95108 -6.69841,27.05884 -0.65996,13.43014 1.94564,27.9176 7.38774,41.07679 0.50222,1.21442 0.0356,1.2234 -10.27523,0.19776 z m 32.34906,-3.58558 c -5.59862,-3.70838 -10.64966,-9.64975 -14.01462,-16.48494 -2.36347,-4.80089 -2.86738,-6.95915 -3.18734,-13.65147 -0.47647,-9.96564 0.74577,-15.66971 5.5264,-25.79125 7.1654,-15.17052 19.38545,-29.26272 45.02592,-51.92398 28.71146,-25.37542 49.10492,-46.62249 55.32069,-57.63623 4.04156,-7.16126 8.36521,-11.34043 13.04611,-12.61017 5.06948,-1.37515 21.86541,-0.68176 30.82081,1.27237 3.61098,0.78795 6.74931,1.61654 6.97409,1.8413 0.22477,0.22478 -4.71963,5.67153 -10.98755,12.10391 -21.67331,22.24192 -36.67347,42.59639 -40.79366,55.35495 -0.54831,1.69787 -1.16352,7.05611 -1.36714,11.90719 -0.61716,14.70329 -7.80341,32.35616 -21.54338,52.92088 -15.46283,23.14333 -32.93315,38.8747 -48.51751,43.68822 -7.98754,2.4671 -11.39501,2.26002 -16.30282,-0.99078 z M 158.21078,405.28249 c -1.13131,-1.7458 -3.2247,-7.95642 -4.65198,-13.80137 -9.76326,-39.98202 -32.57133,-105.55319 -40.61762,-116.77195 -6.24089,-8.70156 -19.061788,-16.80116 -32.480734,-20.51974 -3.542229,-0.98161 -6.626043,-1.97036 -6.852915,-2.19724 -0.226872,-0.22687 1.598751,-2.53909 4.056939,-5.13827 5.179275,-5.47632 10.618056,-8.47381 16.619301,-9.15943 3.882015,-0.44352 4.72824,-0.16895 9.948819,3.228 13.27654,8.63884 27.67861,17.00857 53.70887,31.2128 14.22363,7.76158 22.43902,11.59456 33.51655,15.63752 35.17902,12.83925 64.81424,28.43258 84.79461,44.61687 6.95355,5.63243 12.03715,10.58732 11.40189,11.11319 -0.20719,0.17151 -6.47019,2.36542 -13.91779,4.87535 -48.59846,16.37827 -91.94572,38.84167 -109.01744,56.49497 -1.91762,1.98293 -3.70369,3.60041 -3.96908,3.59441 -0.26537,-0.006 -1.40811,-1.4393 -2.53942,-3.18511 z m 141.79717,-67.0059 c -6.38144,-6.84897 -33.23761,-24.67047 -61.0189,-40.49159 -7.59869,-4.32735 -13.72141,-7.96231 -13.60604,-8.07768 0.11536,-0.11537 10.19739,-1.63228 22.40448,-3.37092 12.2071,-1.73864 25.71128,-3.92866 30.00929,-4.86671 10.66745,-2.3282 22.97662,-3.05022 31.53139,-1.84952 7.53396,1.05744 18.0813,4.17567 18.0813,5.34558 0,0.38911 -1.68685,2.20443 -3.74857,4.03406 -2.06171,1.82962 -9.99984,9.43285 -17.64029,16.89607 -13.35132,13.04163 -16.37043,17.01333 -11.90719,15.6642 1.66764,-0.50409 27.0621,-19.10868 34.17806,-25.03967 1.21277,-1.01082 3.87377,-3.01431 5.91332,-4.45222 7.68286,-5.41645 18.54897,-20.71895 30.24928,-42.59934 5.05866,-9.46005 6.29302,-11.11196 10.49271,-14.04218 5.19711,-3.62614 11.66391,-6.31915 17.51125,-7.29232 3.74615,-0.62347 3.74856,-0.62209 3.74856,2.14349 0,3.68698 -1.73774,6.79855 -6.17613,11.05891 -9.46554,9.08585 -12.37832,22.12142 -10.14376,45.39643 1.39078,14.48625 1.13108,18.88741 -1.41428,23.96803 -3.52671,7.03937 -21.35096,14.56652 -59.44211,25.1023 -7.76172,2.14684 -14.73416,4.09976 -15.49431,4.33981 -0.7786,0.24588 -2.31911,-0.56922 -3.52806,-1.86673 z m 155.73464,-12.63913 c -5.8945,-0.96121 -15.37622,-3.6693 -15.91834,-4.54647 -0.23938,-0.38732 1.2598,-1.86623 3.33148,-3.28647 8.66706,-5.94165 19.8222,-10.25683 29.14333,-11.2736 10.55342,-1.15119 37.14481,-15.40952 50.12898,-26.87919 l 5.82644,-5.14684 0.5428,7.03905 c 1.15643,14.99626 -2.92811,30.13657 -9.81054,36.36508 -5.54412,5.01738 -48.03086,10.20924 -63.24415,7.72844 z m -61.54608,-23.2212 c -2.24442,-6.95922 -3.55785,-21.07775 -2.89239,-31.09101 0.89815,-13.5144 2.73767,-21.17126 6.7808,-28.22447 3.46094,-6.03759 6.21381,-13.13132 7.22422,-18.61574 l 0.50469,-2.73947 -7.22915,-0.5628 c -14.57378,-1.13456 -21.29044,-0.0654 -34.91342,5.55738 -3.58376,1.47917 -6.65978,2.6894 -6.83562,2.6894 -0.17583,0 -0.3197,-0.93893 -0.3197,-2.08652 0,-4.0464 -6.12241,-14.43771 -12.58153,-21.35406 l -6.33718,-6.78579 4.14874,-3.75609 c 5.32419,-4.82028 14.79915,-9.71036 23.41729,-12.08576 5.81136,-1.60179 9.13549,-1.86652 23.10522,-1.84016 14.17924,0.0267 18.30455,0.38226 31.48408,2.71324 13.08583,2.31439 16.02055,3.14355 21.38886,6.0431 6.57115,3.54923 7.60128,4.75348 4.06618,4.75348 -1.18573,0 -3.2656,0.95455 -4.62195,2.12125 l -2.46611,2.12126 -0.0821,17.50357 c -0.089,18.98431 -0.72415,23.75569 -6.12027,45.97737 -3.52626,14.52138 -10.80112,37.39878 -12.1696,38.26998 -0.93069,0.5925 -21.97006,6.02242 -23.33515,6.02242 -0.39739,0 -1.39453,-2.08376 -2.2159,-4.63058 z m 42.24747,-14.01286 c 0.76598,-2.60147 2.89113,-8.30211 4.72257,-12.66808 7.25946,-17.30589 8.72264,-24.28565 9.70722,-46.30577 1.131,-25.29461 3.55167,-32.92075 11.96162,-37.68412 4.7441,-2.68706 7.02502,-2.5272 16.98062,1.19006 10.66392,3.98174 17.67848,7.46928 24.22931,12.04645 7.4062,5.17486 8.58721,7.53135 8.58721,17.13422 0,7.01888 0.2976,8.50921 2.63205,13.18084 1.44762,2.89696 4.82132,7.68643 7.49712,10.64328 2.67579,2.95685 4.86508,5.84841 4.86508,6.4257 0,2.67708 -7.7372,15.47837 -12.49064,20.66591 -6.09895,6.65591 -18.53494,15.31592 -26.01071,18.11297 -5.57133,2.0845 -8.2107,2.08631 -21.30186,0.0147 -5.8861,-0.93149 -9.34808,-0.95145 -17.6403,-0.10169 -5.67432,0.58149 -11.40032,1.28637 -12.72446,1.5664 l -2.40751,0.50918 1.39268,-4.72996 z M 191.13821,278.31164 c -9.70216,-4.55602 -18.63256,-8.79624 -19.84533,-9.42272 -3.02685,-1.56358 -9.9153,-13.44632 -12.72757,-21.95537 -1.27716,-3.86427 -2.66936,-10.69646 -3.0938,-15.18265 -0.42444,-4.48621 -1.35459,-9.55175 -2.06699,-11.25678 -1.74656,-4.1801 -6.21167,-9.12583 -9.45004,-10.4672 -3.38348,-1.40149 -3.33873,-2.24615 0.21645,-4.0855 3.26187,-1.6876 9.14767,-1.88315 24.47591,-0.81314 l 10.14317,0.70805 7.05612,-3.58531 c 19.73786,-10.02908 47.21459,-10.18769 61.44806,-0.35472 2.10155,1.45184 4.9645,3.70556 6.3621,5.00828 2.41146,2.24776 2.51784,2.65792 2.08572,8.04144 -0.55902,6.96411 -3.30954,12.77984 -9.89512,20.92236 -4.07672,5.04049 -5.29423,7.43374 -7.62805,14.99424 -3.87875,12.56532 -7.15723,18.6292 -13.50282,24.97479 -5.35483,5.35482 -13.17466,11.00332 -15.00768,10.8405 -0.51141,-0.0455 -8.86797,-3.81024 -18.57013,-8.36627 z m 57.76625,-0.31337 c -5.41536,-1.64728 -7.93242,-3.58117 -7.93242,-6.09458 0,-7.62053 7.10718,-22.22496 17.87986,-36.74104 16.87311,-22.73633 23.55138,-34.48776 25.80282,-45.404 1.69634,-8.22485 3.16214,-10.60392 6.53328,-10.60392 3.22542,0 7.68142,3.53127 22.81778,18.08254 16.85873,16.20708 21.58504,22.84634 25.65145,36.03376 3.68109,11.93782 1.71257,22.15076 -5.16727,26.80854 -3.94749,2.67251 -4.68304,2.53066 -6.86058,-1.32303 -5.10835,-9.04045 -16.93957,-22.2012 -23.0413,-25.63057 l -3.39936,-1.91054 -5.46767,3.53392 c -10.68983,6.90917 -19.17094,16.37367 -25.80135,28.79298 -2.02632,3.7955 -4.65339,8.09163 -5.8379,9.54695 -4.01339,4.9309 -9.38919,6.66967 -15.17734,4.90899 z m 30.65572,-4.0906 c -2.06434,-2.09518 1.70749,-8.86433 11.12431,-19.96435 5.51026,-6.49517 9.77594,-9.17274 13.2316,-8.30542 3.12979,0.78552 13.0302,10.68124 15.06718,15.06002 2.98193,6.41007 -0.52335,9.10429 -14.94719,11.48868 -9.41612,1.55657 -23.65173,2.55758 -24.4759,1.72107 z m -19.53681,-76.64796 c -16.12546,-6.62947 -19.45764,-21.79935 -8.37803,-38.14141 4.0301,-5.94425 18.9875,-21.0586 23.39759,-23.64308 2.95604,-1.73235 4.34612,-3.48713 6.97153,-8.80057 2.43454,-4.92712 3.8356,-6.77639 5.43887,-7.17878 3.35013,-0.84083 6.08929,0.94545 9.63218,6.28142 2.10826,3.17529 4.0606,5.09513 5.5435,5.45127 7.51378,1.80449 19.6573,10.0062 26.37963,17.81676 20.27043,23.55182 20.04121,35.98354 -0.74338,40.31726 l -6.31991,1.31774 -5.86758,-4.72834 c -16.80839,-13.54488 -20.38839,-15.6174 -26.97692,-15.6174 -5.87119,0 -8.64564,2.97864 -15.93528,17.10804 -3.39576,6.58193 -6.57101,11.96479 -7.05612,11.96186 -0.48511,-0.003 -3.22384,-0.96806 -6.08608,-2.14477 z"
     id="path4168" />
</svg>
