<?xml version="1.0" encoding="UTF-8" standalone="no"?>
<!-- Created with Inkscape (http://www.inkscape.org/) -->

<svg
   xmlns:dc="http://purl.org/dc/elements/1.1/"
   xmlns:cc="http://creativecommons.org/ns#"
   xmlns:rdf="http://www.w3.org/1999/02/22-rdf-syntax-ns#"
   xmlns:svg="http://www.w3.org/2000/svg"
   xmlns="http://www.w3.org/2000/svg"
   xmlns:sodipodi="http://sodipodi.sourceforge.net/DTD/sodipodi-0.dtd"
   xmlns:inkscape="http://www.inkscape.org/namespaces/inkscape"
   id="svg2"
   version="1.1"
   inkscape:version="0.91 r13725"
   width="607.5"
   height="607.5"
   viewBox="0 0 607.5 607.5"
   sodipodi:docname="appealing.svg">
  <metadata
     id="metadata8">
    <rdf:RDF>
      <cc:Work
         rdf:about="">
        <dc:format>image/svg+xml</dc:format>
        <dc:type
           rdf:resource="http://purl.org/dc/dcmitype/StillImage" />
        <dc:title></dc:title>
      </cc:Work>
    </rdf:RDF>
  </metadata>
  <defs
     id="defs6" />
  <sodipodi:namedview
     pagecolor="#ffffff"
     bordercolor="#666666"
     borderopacity="1"
     objecttolerance="10"
     gridtolerance="10"
     guidetolerance="10"
     inkscape:pageopacity="0"
     inkscape:pageshadow="2"
     inkscape:window-width="1920"
     inkscape:window-height="1027"
     id="namedview4"
     showgrid="false"
     inkscape:zoom="0.77695473"
     inkscape:cx="295.34902"
     inkscape:cy="303.82121"
     inkscape:window-x="0"
     inkscape:window-y="0"
     inkscape:window-maximized="1"
     inkscape:current-layer="svg2" />
  <circle
     style="fill:#000000;fill-opacity:1;stroke:none"
     id="path4180"
     cx="303.75"
     cy="303.75"
     r="299.24524" />
  <path
     style="fill:#000000"
     d=""
     id="path4149"
     inkscape:connector-curvature="0" />
  <path
     style="fill:#000000"
     d=""
     id="path4147"
     inkscape:connector-curvature="0" />
  <path
     style="fill:#000000"
     d=""
     id="path4145"
     inkscape:connector-curvature="0" />
  <path
     style="fill:#ff9960;fill-opacity:1"
     d="m 287.19088,535.26967 c -10.29371,-1.02394 -34.63686,-6.17547 -50.89784,-10.77108 -39.27505,-11.09974 -73.37582,-28.28732 -93.64721,-47.20036 -9.99004,-9.32063 -13.24024,-13.82852 -13.22798,-18.34659 0.0219,-8.04909 8.86162,-20.68388 21.62949,-30.91524 3.99927,-3.20477 10.35846,-8.32182 14.13153,-11.37122 14.79572,-11.95795 33.84416,-23.03174 59.72491,-34.72104 27.1127,-12.2457 69.70025,-27.9522 75.79134,-27.9522 9.56234,0 43.73502,-10.39951 89.39747,-27.20565 20.44251,-7.5239 77.7436,-26.69524 79.78921,-26.69524 0.36588,0 -2.77352,1.80583 -6.97645,4.01296 -4.20293,2.20713 -11.16974,6.50695 -15.48181,9.55516 -10.65574,7.53255 -27.96357,25.10616 -36.09983,36.65417 -8.20822,11.65015 -17.01645,19.58839 -72.51526,65.35291 -27.89313,23.00078 -34.42483,29.9647 -40.96657,43.67743 -5.09005,10.66971 -6.83619,17.72343 -7.44268,30.06538 -0.73329,14.92238 2.16182,31.01956 8.2086,45.64088 0.55803,1.34935 0.0395,1.35933 -11.41692,0.21973 z m 35.9434,-3.98398 c -6.22069,-4.12042 -11.83296,-10.72194 -15.5718,-18.3166 -2.62608,-5.33432 -3.18598,-7.73238 -3.54149,-15.1683 -0.52941,-11.07293 0.82864,-17.41079 6.14045,-28.65694 7.96155,-16.85613 21.53939,-32.51413 50.0288,-57.69331 31.90162,-28.19491 54.56102,-51.80277 61.46743,-64.04026 4.49062,-7.95695 9.29468,-12.60048 14.49568,-14.0113 5.63275,-1.52794 24.2949,-0.75751 34.24534,1.41375 4.0122,0.8755 7.49924,1.79615 7.74899,2.04589 0.24975,0.24975 -5.24403,6.3017 -12.20839,13.44879 -24.08145,24.71324 -40.7483,47.32932 -45.32629,61.50549 -0.60923,1.88653 -1.2928,7.84013 -1.51904,13.23022 -0.68574,16.33698 -8.67046,35.95129 -23.93709,58.80097 -17.18092,25.71481 -36.59239,43.19411 -53.90835,48.54247 -8.87504,2.74122 -12.66112,2.51113 -18.11424,-1.10087 z M 142.31306,415.12187 c -1.25701,-1.93978 -3.583,-8.84047 -5.16887,-15.33485 -10.84806,-44.42447 -36.19037,-117.28133 -45.130692,-129.74662 -6.93432,-9.66839 -21.17976,-18.66795 -36.0897,-22.79971 -3.93581,-1.09067 -7.36227,-2.18929 -7.61435,-2.44137 -0.25208,-0.25208 1.77639,-2.82122 4.50771,-5.70919 5.75475,-6.0848 11.79784,-9.41535 18.46589,-10.17715 4.31335,-0.4928 5.2536,-0.18772 11.05424,3.58667 14.75172,9.59871 30.754012,18.89841 59.676522,34.68089 15.80404,8.62398 24.93225,12.88284 37.24062,17.37502 39.08779,14.26583 72.01582,31.59176 94.21623,49.5743 7.72617,6.25826 13.37461,11.76369 12.66876,12.34799 -0.23021,0.19057 -7.1891,2.62824 -15.46421,5.41705 -53.99829,18.19808 -102.16191,43.15742 -121.13049,62.77219 -2.13068,2.20326 -4.11521,4.00046 -4.41008,3.99379 -0.29486,-0.007 -1.56457,-1.59922 -2.82158,-3.53901 z m 157.55241,-74.451 c -7.09049,-7.60996 -36.93068,-27.41163 -67.79878,-44.99065 -8.44299,-4.80817 -15.24601,-8.84701 -15.11782,-8.9752 0.12818,-0.12819 11.33043,-1.81365 24.89387,-3.74547 13.56344,-1.93182 28.56808,-4.36518 33.34365,-5.40746 11.85272,-2.58689 25.52958,-3.38913 35.03488,-2.05502 8.37107,1.17493 20.09033,4.63963 20.09033,5.93954 0,0.43234 -1.87428,2.44936 -4.16507,4.48228 -2.29079,2.03292 -11.11094,10.48095 -19.60033,18.77342 -14.8348,14.49069 -18.18936,18.9037 -13.23021,17.40466 1.85294,-0.5601 30.069,-21.23186 37.97562,-27.82185 1.34753,-1.12314 4.30419,-3.34924 6.57036,-4.94691 8.53651,-6.01828 20.60997,-23.02106 33.61031,-47.33261 5.62073,-10.51116 6.99224,-12.34662 11.65857,-15.60242 5.77456,-4.02904 12.9599,-7.02127 19.45694,-8.10257 4.16239,-0.69275 4.16507,-0.69122 4.16507,2.38165 0,4.09665 -1.93082,7.55394 -6.86237,12.28768 -10.51727,10.09539 -13.75369,24.57935 -11.27084,50.44048 1.54531,16.09583 1.25675,20.98601 -1.57143,26.63114 -3.91856,7.82152 -23.72328,16.18502 -66.04678,27.89144 -8.62414,2.38538 -16.37129,4.55529 -17.2159,4.82202 -0.86511,0.2732 -2.57679,-0.63247 -3.92007,-2.07415 z m 173.03849,-14.04348 c -6.54945,-1.06801 -17.08469,-4.077 -17.68705,-5.05163 -0.26597,-0.43035 1.39978,-2.07359 3.70165,-3.65163 9.63006,-6.60184 22.02466,-11.39648 32.38148,-12.52623 11.72602,-1.2791 41.27201,-17.12168 55.69886,-29.86576 l 6.47382,-5.71871 0.60312,7.82116 c 1.28492,16.66251 -3.25346,33.48508 -10.9006,40.40565 -6.16014,5.57486 -53.36763,11.3436 -70.27128,8.58715 z m -68.38454,-25.80133 c -2.49379,-7.73247 -3.95316,-23.41972 -3.21376,-34.54557 0.99794,-15.016 3.04185,-23.52362 7.53422,-31.36052 3.84549,-6.70843 6.90423,-14.59035 8.02691,-20.68415 l 0.56077,-3.04386 -8.03239,-0.62533 c -16.19309,-1.26063 -23.65604,-0.0727 -38.79269,6.17486 -3.98195,1.64353 -7.39975,2.98823 -7.59513,2.98823 -0.19537,0 -0.35522,-1.04326 -0.35522,-2.31836 0,-4.496 -6.80268,-16.0419 -13.97948,-23.72673 l -7.04131,-7.53977 4.60971,-4.17343 c 5.91576,-5.35587 16.4435,-10.78929 26.01921,-13.42863 6.45707,-1.77976 10.15054,-2.07391 25.67246,-2.04462 15.75472,0.0297 20.33839,0.42474 34.98232,3.01471 14.53981,2.57155 17.80061,3.49284 23.7654,6.71456 7.30127,3.94359 8.44586,5.28164 4.51797,5.28164 -1.31747,0 -3.62844,1.06062 -5.1355,2.35695 l -2.74012,2.35695 -0.0912,19.44841 c -0.0989,21.09368 -0.80461,26.39522 -6.8003,51.08597 -3.91806,16.13487 -12.00124,41.5542 -13.52178,42.5222 -1.0341,0.65834 -24.41117,6.69158 -25.92794,6.69158 -0.44154,0 -1.54948,-2.31529 -2.46211,-5.14509 z m 46.94164,-15.56984 c 0.85109,-2.89053 3.21237,-9.22457 5.2473,-14.07565 8.06606,-19.22877 9.69182,-26.98405 10.7858,-51.45085 1.25666,-28.10513 3.9463,-36.57861 13.29069,-41.87125 5.27122,-2.98562 7.80558,-2.808 18.86735,1.32229 11.8488,4.42416 19.64276,8.2992 26.92146,13.38495 8.22911,5.74984 9.54134,8.36816 9.54134,19.03802 0,7.79875 0.33067,9.45467 2.9245,14.64538 1.60847,3.21884 5.35703,8.54047 8.33014,11.82586 2.9731,3.28539 5.40564,6.49824 5.40564,7.13967 0,2.97453 -8.59689,17.19819 -13.87849,22.96212 -6.77661,7.39546 -20.59438,17.01769 -28.90079,20.12552 -6.19036,2.31611 -9.123,2.31812 -23.66873,0.0163 -6.54011,-1.03499 -10.38676,-1.05716 -19.60033,-0.11299 -6.3048,0.6461 -12.66703,1.4293 -14.13829,1.74045 l -2.67501,0.56575 1.54742,-5.25551 z M 178.89909,274.04315 c -10.78018,-5.06224 -20.70284,-9.7736 -22.05036,-10.46969 -3.36317,-1.73731 -11.01701,-14.94035 -14.14175,-24.39486 -1.41907,-4.29363 -2.96596,-11.88495 -3.43756,-16.86961 -0.47159,-4.98467 -1.50509,-10.61305 -2.29665,-12.50753 -1.94062,-4.64456 -6.90186,-10.13981 -10.50004,-11.63022 -3.75943,-1.55721 -3.7097,-2.49572 0.2405,-4.53945 3.62429,-1.87511 10.16407,-2.09238 27.19545,-0.90349 l 11.27019,0.78673 7.84013,-3.98368 c 21.93096,-11.14342 52.46066,-11.31966 68.27562,-0.39413 2.33506,1.61315 5.51612,4.11729 7.069,5.56475 2.67941,2.49751 2.79761,2.95325 2.31747,8.93494 -0.62113,7.7379 -3.67726,14.19982 -10.99458,23.24706 -4.52968,5.60055 -5.88247,8.25971 -8.47561,16.66027 -4.30972,13.96146 -7.95248,20.69911 -15.00313,27.74976 -5.94981,5.94981 -14.63851,12.22592 -16.6752,12.04501 -0.56823,-0.0505 -9.8533,-4.23361 -20.63348,-9.29586 z m 64.18472,-0.34819 c -6.01706,-1.83031 -8.8138,-3.97908 -8.8138,-6.77175 0,-8.46726 7.89687,-24.6944 19.86651,-40.82338 18.74791,-25.26259 26.1682,-38.31974 28.6698,-50.44889 1.88483,-9.13872 3.51349,-11.78214 7.25921,-11.78214 3.5838,0 8.53491,3.92364 25.35308,20.09172 18.73193,18.00786 23.98338,25.38482 28.50161,40.03751 4.0901,13.26424 1.90286,24.61195 -5.74141,29.78726 -4.3861,2.96946 -5.20337,2.81185 -7.62286,-1.47003 -5.67595,-10.04494 -18.82175,-24.668 -25.60145,-28.47841 l -3.77706,-2.12282 -6.07519,3.92658 c -11.87759,7.67685 -21.30105,18.19296 -28.66817,31.9922 -2.25147,4.21722 -5.17043,8.99069 -6.48656,10.60772 -4.45932,5.47878 -10.43243,7.41074 -16.86371,5.45443 z m 34.06191,-4.54511 c -2.29371,-2.32798 1.89722,-9.84926 12.36035,-22.18261 6.12251,-7.21686 10.86216,-10.19193 14.70178,-9.22825 3.47754,0.8728 14.478,11.86805 16.74131,16.73336 3.31325,7.1223 -0.5815,10.11588 -16.60799,12.7652 -10.46236,1.72952 -26.2797,2.84175 -27.19545,1.9123 z m -21.70756,-85.1644 c -17.91718,-7.36608 -21.6196,-24.2215 -9.30892,-42.37934 4.47788,-6.60473 21.09722,-23.39845 25.99732,-26.27009 3.28449,-1.92484 4.82902,-3.87459 7.74614,-9.77841 2.70505,-5.47458 4.26178,-7.529323 6.04319,-7.976423 3.72237,-0.934258 6.76588,1.0505 10.70242,6.979353 2.34252,3.5281 4.51178,5.66125 6.15945,6.05696 8.34864,2.00499 21.84144,11.11801 29.3107,19.7964 22.5227,26.16869 22.26801,39.98172 -0.82598,44.79696 l -7.02212,1.46416 -6.51954,-5.25371 c -18.67598,-15.04987 -22.65376,-17.35267 -29.97435,-17.35267 -6.52354,0 -9.60627,3.3096 -17.70587,19.00893 -3.77306,7.31326 -7.30112,13.29421 -7.84013,13.29096 -0.53901,-0.003 -3.58205,-1.07562 -6.76231,-2.38308 z"
     id="path4168"
     inkscape:connector-curvature="0" />
</svg>
