<?xml version="1.0" encoding="UTF-8" standalone="no"?>
<svg
   xmlns:dc="http://purl.org/dc/elements/1.1/"
   xmlns:cc="http://creativecommons.org/ns#"
   xmlns:rdf="http://www.w3.org/1999/02/22-rdf-syntax-ns#"
   xmlns:svg="http://www.w3.org/2000/svg"
   xmlns="http://www.w3.org/2000/svg"
   xml:space="preserve"
   style="enable-background:new 0 0 3474.7 2316.6;"
   viewBox="0 0 3474.7 2316.6"
   y="0px"
   x="0px"
   id="Layer_1"
   version="1.1"><metadata
     id="metadata52"><rdf:RDF><cc:Work
         rdf:about=""><dc:format>image/svg+xml</dc:format><dc:type
           rdf:resource="http://purl.org/dc/dcmitype/StillImage" /><dc:title></dc:title></cc:Work></rdf:RDF></metadata><defs
     id="defs50" /><style
     id="style2"
     type="text/css">
	.st0{fill:#123B22;}
	.st1{fill:#12512E;}
	.st2{fill:none;stroke:#00884B;stroke-width:7;stroke-miterlimit:10;}
	.st3{fill:#12512E;stroke:#00884B;stroke-width:7;stroke-miterlimit:10;}
	.st4{fill:#12512E;stroke:#00884B;stroke-width:8;stroke-miterlimit:10;}
	.st5{fill:none;stroke:#00884B;stroke-width:8;stroke-miterlimit:10;}
	.st6{fill:none;stroke:#00884B;stroke-width:4;stroke-miterlimit:10;}
	.st7{fill:none;stroke:#00884B;stroke-width:9;stroke-miterlimit:10;}
</style><rect
     height="2316.6"
     width="3474.7"
     class="st0"
     id="XMLID_15_" /><g
     id="XMLID_35_"><path
       d="M3153.2,1624.9H1344.6c-37.1,0-67.2-30.1-67.2-67.2V286.4c0-37.1,30.1-67.2,67.2-67.2h1808.6   c37.1,0,67.2,30.1,67.2,67.2v1271.3C3220.4,1594.8,3190.3,1624.9,3153.2,1624.9z"
       class="st4"
       id="XMLID_38_" /><path
       d="M3120.1,1492.8H1377.7c-6.6,0-12-5.4-12-12V314.7c0-6.6,5.4-12,12-12h1742.4   c6.6,0,12,5.4,12,12v1166.1C3132.1,1487.4,3126.7,1492.8,3120.1,1492.8z"
       class="st5"
       id="XMLID_37_" /><polygon
       points="2249.4,1625.3 2409.1,1625.3 2495.1,1940.3 2550.4,1940.3 2550.4,1968.3    2249.4,1968.3 1947.4,1968.3 1947.4,1940.3 2003.7,1940.3 2089.8,1625.3  "
       class="st4"
       id="XMLID_36_" /></g><g
     id="XMLID_30_"><path
       d="M1435.2,852.2v1141.4c0,31.5-25.8,57.3-57.3,57.3H627.4c-31.5,0-57.3-25.8-57.3-57.3V852.2   c0-31.5,25.8-57.3,57.3-57.3h750.4C1409.4,794.9,1435.2,820.7,1435.2,852.2z"
       class="st4"
       id="XMLID_34_" /><path
       d="M1406.6,896.3v1053.3c0,6.6-5.4,12-12,12h-784c-6.6,0-12-5.4-12-12V896.3c0-6.6,5.4-12,12-12   h784C1401.2,884.3,1406.6,889.7,1406.6,896.3z"
       class="st5"
       id="XMLID_33_" /><circle
       r="29.5"
       cy="2006"
       cx="1002.6"
       class="st6"
       id="XMLID_32_" /><circle
       r="8.6"
       cy="838.2"
       cx="1002.6"
       class="st6"
       id="XMLID_31_" /></g><g
     id="XMLID_76_"><g
       id="XMLID_82_"><path
         d="M632.4,2106.6H289.9c-30.7,0-55.6-24.9-55.6-55.6v-803.3c0-30.7,24.9-55.6,55.6-55.6h342.5    c30.7,0,55.6,24.9,55.6,55.6V2051C688,2081.7,663.1,2106.6,632.4,2106.6z"
         class="st1"
         id="XMLID_91_" /><path
         d="M632.4,2106.6H289.9c-30.7,0-55.6-24.9-55.6-55.6v-803.3c0-30.7,24.9-55.6,55.6-55.6h342.5    c30.7,0,55.6,24.9,55.6,55.6V2051C688,2081.7,663.1,2106.6,632.4,2106.6z"
         class="st5"
         id="XMLID_90_" /></g><path
       d="M653,2015.7H269.3c-7.5,0-13.5-6.1-13.5-13.5v-705.6c0-7.5,6.1-13.5,13.5-13.5H653   c7.5,0,13.5,6.1,13.5,13.5v705.6C666.5,2009.7,660.5,2015.7,653,2015.7z"
       class="st5"
       id="XMLID_81_" /><circle
       r="32.4"
       cy="2061.6"
       cx="461"
       class="st6"
       id="XMLID_80_" /><circle
       r="5.3"
       cy="1244.6"
       cx="411.2"
       class="st6"
       id="XMLID_79_" /><path
       d="M493.6,1248h-64.8c-1.9,0-3.5-1.6-3.5-3.5l0,0c0-1.9,1.6-3.5,3.5-3.5h64.8   c1.9,0,3.5,1.6,3.5,3.5l0,0C497.1,1246.4,495.5,1248,493.6,1248z"
       class="st6"
       id="XMLID_78_" /></g></svg>