<?xml version="1.0" encoding="utf-8"?>
<!-- Generator: Adobe Illustrator 19.0.0, SVG Export Plug-In . SVG Version: 6.00 Build 0)  -->
<svg version="1.1" id="Layer_1" xmlns="http://www.w3.org/2000/svg" xmlns:xlink="http://www.w3.org/1999/xlink" x="0px" y="0px"
	 viewBox="0 0 3474.7 2316.6" style="enable-background:new 0 0 3474.7 2316.6;" xml:space="preserve">
<style type="text/css">
	.st0{fill:#123B22;}
	.st1{fill:#12512E;}
	.st2{fill:none;stroke:#00884B;stroke-width:7;stroke-miterlimit:10;}
	.st3{fill:#12512E;stroke:#00884B;stroke-width:7;stroke-miterlimit:10;}
	.st4{fill:#12512E;stroke:#00884B;stroke-width:8;stroke-miterlimit:10;}
	.st5{fill:none;stroke:#00884B;stroke-width:8;stroke-miterlimit:10;}
	.st6{fill:none;stroke:#00884B;stroke-width:4;stroke-miterlimit:10;}
	.st7{fill:none;stroke:#00884B;stroke-width:9;stroke-miterlimit:10;}
</style>
<rect id="XMLID_15_" class="st0" width="3474.7" height="2316.6"/>
<g id="XMLID_14_">
	<g id="XMLID_2_">
		<path id="XMLID_27_" class="st1" d="M-683.7,4089.6c0,44-36,80-80,80h-666c-44,0-80-36-80-80v-1505c0-44,36-80,80-80h666
			c44,0,80,36,80,80V4089.6z"/>
		<path id="XMLID_26_" class="st2" d="M-683.7,4089.6c0,44-36,80-80,80h-666c-44,0-80-36-80-80v-1505c0-44,36-80,80-80h666
			c44,0,80,36,80,80V4089.6z"/>
	</g>
	<path id="XMLID_1_" class="st2" d="M-736.3,4004.1h-720.8c-7.5,0-13.5-6.1-13.5-13.5V2683.7c0-7.5,6.1-13.5,13.5-13.5h720.8
		c7.5,0,13.5,6.1,13.5,13.5v1306.9C-722.7,3998.1-728.8,4004.1-736.3,4004.1z"/>
	<circle id="XMLID_3_" class="st2" cx="-1097" cy="4087.7" r="59"/>
	<circle id="XMLID_5_" class="st2" cx="-1187.6" cy="2600.2" r="9.6"/>
	<path id="XMLID_4_" class="st2" d="M-1037.7,2606.3h-117.9c-3.5,0-6.4-2.9-6.4-6.4l0,0c0-3.5,2.9-6.4,6.4-6.4h117.9
		c3.5,0,6.4,2.9,6.4,6.4l0,0C-1031.3,2603.5-1034.2,2606.3-1037.7,2606.3z"/>
</g>
<g id="XMLID_6_">
	<path id="XMLID_8_" class="st3" d="M7027.3,5289.6H4807.5c-46.2,0-84-37.8-84-84V3729c0-46.2,37.8-84,84-84h2219.8
		c46.2,0,84,37.8,84,84v1476.5C7111.3,5251.8,7073.5,5289.6,7027.3,5289.6z"/>
	<path id="XMLID_7_" class="st2" d="M6929.4,5235.3h-2024c-6.6,0-12-5.4-12-12v-1512c0-6.6,5.4-12,12-12h2024c6.6,0,12,5.4,12,12
		v1512C6941.4,5229.9,6936,5235.3,6929.4,5235.3z"/>
	<circle id="XMLID_9_" class="st2" cx="4809" cy="4467.1" r="56.1"/>
	<circle id="XMLID_11_" class="st2" cx="7029" cy="4467.1" r="16.4"/>
</g>
<g id="XMLID_13_">
	<path id="XMLID_10_" class="st3" d="M6744.1-992.8H5162.6c-37.1,0-67.2-30.1-67.2-67.2v-1107c0-37.1,30.1-67.2,67.2-67.2h1581.5
		c37.1,0,67.2,30.1,67.2,67.2v1107C6811.3-1022.9,6781.2-992.8,6744.1-992.8z"/>
	<path id="XMLID_12_" class="st2" d="M6721.3-1109.5H5185.4c-6.6,0-12-5.4-12-12v-1027c0-6.6,5.4-12,12-12h1535.9
		c6.6,0,12,5.4,12,12v1027C6733.3-1114.9,6727.9-1109.5,6721.3-1109.5z"/>
	<polygon id="XMLID_17_" class="st3" points="5953.8,-993.2 6094.8,-993.2 6170.8,-715.2 6219.9,-715.2 6219.9,-690.2 
		5953.8,-690.2 5687.9,-690.2 5687.9,-715.2 5736.8,-715.2 5812.8,-993.2 	"/>
</g>
<g id="XMLID_35_">
	<path id="XMLID_38_" class="st4" d="M3153.2,1624.9H1344.6c-37.1,0-67.2-30.1-67.2-67.2V286.4c0-37.1,30.1-67.2,67.2-67.2h1808.6
		c37.1,0,67.2,30.1,67.2,67.2v1271.3C3220.4,1594.8,3190.3,1624.9,3153.2,1624.9z"/>
	<path id="XMLID_37_" class="st5" d="M3120.1,1492.8H1377.7c-6.6,0-12-5.4-12-12V314.7c0-6.6,5.4-12,12-12h1742.4
		c6.6,0,12,5.4,12,12v1166.1C3132.1,1487.4,3126.7,1492.8,3120.1,1492.8z"/>
	<polygon id="XMLID_36_" class="st4" points="2249.4,1625.3 2409.1,1625.3 2495.1,1940.3 2550.4,1940.3 2550.4,1968.3 
		2249.4,1968.3 1947.4,1968.3 1947.4,1940.3 2003.7,1940.3 2089.8,1625.3 	"/>
</g>
<g id="XMLID_30_">
	<path id="XMLID_34_" class="st4" d="M1435.2,852.2v1141.4c0,31.5-25.8,57.3-57.3,57.3H627.4c-31.5,0-57.3-25.8-57.3-57.3V852.2
		c0-31.5,25.8-57.3,57.3-57.3h750.4C1409.4,794.9,1435.2,820.7,1435.2,852.2z"/>
	<path id="XMLID_33_" class="st5" d="M1406.6,896.3v1053.3c0,6.6-5.4,12-12,12h-784c-6.6,0-12-5.4-12-12V896.3c0-6.6,5.4-12,12-12
		h784C1401.2,884.3,1406.6,889.7,1406.6,896.3z"/>
	<circle id="XMLID_32_" class="st6" cx="1002.6" cy="2006" r="29.5"/>
	<circle id="XMLID_31_" class="st6" cx="1002.6" cy="838.2" r="8.6"/>
</g>
<g id="XMLID_76_">
	<g id="XMLID_82_">
		<path id="XMLID_91_" class="st1" d="M632.4,2106.6H289.9c-30.7,0-55.6-24.9-55.6-55.6v-803.3c0-30.7,24.9-55.6,55.6-55.6h342.5
			c30.7,0,55.6,24.9,55.6,55.6V2051C688,2081.7,663.1,2106.6,632.4,2106.6z"/>
		<path id="XMLID_90_" class="st5" d="M632.4,2106.6H289.9c-30.7,0-55.6-24.9-55.6-55.6v-803.3c0-30.7,24.9-55.6,55.6-55.6h342.5
			c30.7,0,55.6,24.9,55.6,55.6V2051C688,2081.7,663.1,2106.6,632.4,2106.6z"/>
	</g>
	<path id="XMLID_81_" class="st5" d="M653,2015.7H269.3c-7.5,0-13.5-6.1-13.5-13.5v-705.6c0-7.5,6.1-13.5,13.5-13.5H653
		c7.5,0,13.5,6.1,13.5,13.5v705.6C666.5,2009.7,660.5,2015.7,653,2015.7z"/>
	<circle id="XMLID_80_" class="st6" cx="461" cy="2061.6" r="32.4"/>
	<circle id="XMLID_79_" class="st6" cx="411.2" cy="1244.6" r="5.3"/>
	<path id="XMLID_78_" class="st6" d="M493.6,1248h-64.8c-1.9,0-3.5-1.6-3.5-3.5l0,0c0-1.9,1.6-3.5,3.5-3.5h64.8
		c1.9,0,3.5,1.6,3.5,3.5l0,0C497.1,1246.4,495.5,1248,493.6,1248z"/>
</g>
<g id="XMLID_16_">
	<g id="XMLID_23_">
		<path id="XMLID_29_" class="st1" d="M-231.4,2483.9c0,23.3-19.1,42.4-42.4,42.4h-353.3c-23.3,0-42.4-19.1-42.4-42.4v-798.4
			c0-23.3,19.1-42.4,42.4-42.4h353.3c23.3,0,42.4,19.1,42.4,42.4V2483.9z"/>
		<path id="XMLID_28_" class="st7" d="M-231.4,2483.9c0,23.3-19.1,42.4-42.4,42.4h-353.3c-23.3,0-42.4-19.1-42.4-42.4v-798.4
			c0-23.3,19.1-42.4,42.4-42.4h353.3c23.3,0,42.4,19.1,42.4,42.4V2483.9z"/>
	</g>
	<path id="XMLID_22_" class="st7" d="M-265.7,2438.6h-369.7c-7.5,0-13.5-6.1-13.5-13.5v-680.6c0-7.5,6.1-13.5,13.5-13.5h369.7
		c7.5,0,13.5,6.1,13.5,13.5V2425C-252.2,2432.5-258.2,2438.6-265.7,2438.6z"/>
	<circle id="XMLID_21_" class="st7" cx="-450.7" cy="2482.9" r="31.3"/>
	<circle id="XMLID_20_" class="st7" cx="-498.8" cy="1693.8" r="5.1"/>
	<path id="XMLID_19_" class="st7" d="M-419.3,1697h-62.6c-1.9,0-3.4-1.5-3.4-3.4l0,0c0-1.9,1.5-3.4,3.4-3.4h62.6
		c1.9,0,3.4,1.5,3.4,3.4l0,0C-415.9,1695.5-417.4,1697-419.3,1697z"/>
</g>
</svg>
