<?xml version="1.0" encoding="utf-8"?>
<!-- Generator: Adobe Illustrator 19.0.0, SVG Export Plug-In . SVG Version: 6.00 Build 0)  -->
<svg version="1.1" id="Layer_1" xmlns="http://www.w3.org/2000/svg" xmlns:xlink="http://www.w3.org/1999/xlink" x="0px" y="0px"
	 viewBox="0 0 388 388" style="enable-background:new 0 0 388 388;" xml:space="preserve">
<path d="M311.4,98.3c-10.7-56.2-59.4-96-119.7-96c-3,0-8.7,0-14.3,1C129.7,11.6,96.7,38,80.6,83.9c-8.9,25.4-6.8,51.4,0.5,76.7
	c18.6,64.8,45,126.3,75.9,186.1c5.9,11.4,12.8,22.3,21.9,31.5c10.1,10.1,17.7,10,27.9,0c7.2-7.1,12.7-15.4,17.7-24.1
	c18.5-31.8,33-65.4,47.3-99.2c12.9-30.5,25.7-61.1,34.7-93.1C312.4,141,315.5,119.8,311.4,98.3z M195.4,201.3
	c-38.7,0-70.4-31.7-70.3-70.3c0-38.5,31.6-70.1,69.9-70.1c38.7,0,70.4,31.5,70.4,70.2C265.3,169.5,233.7,201.2,195.4,201.3z"/>
</svg>
