<?xml version="1.0" encoding="UTF-8" standalone="no"?>
<svg
   xmlns:dc="http://purl.org/dc/elements/1.1/"
   xmlns:cc="http://creativecommons.org/ns#"
   xmlns:rdf="http://www.w3.org/1999/02/22-rdf-syntax-ns#"
   xmlns:svg="http://www.w3.org/2000/svg"
   xmlns="http://www.w3.org/2000/svg"
   xmlns:sodipodi="http://sodipodi.sourceforge.net/DTD/sodipodi-0.dtd"
   xmlns:inkscape="http://www.inkscape.org/namespaces/inkscape"
   version="1.1"
   id="svg2"
   viewBox="0 0 939.99999 939.99996"
   height="940"
   width="940"
   inkscape:version="0.91 r13725"
   sodipodi:docname="logo.svg">
  <sodipodi:namedview
     pagecolor="#ffffff"
     bordercolor="#666666"
     borderopacity="1"
     objecttolerance="10"
     gridtolerance="10"
     guidetolerance="10"
     inkscape:pageopacity="0"
     inkscape:pageshadow="2"
     inkscape:window-width="1920"
     inkscape:window-height="1027"
     id="namedview7"
     showgrid="false"
     inkscape:zoom="0.50212766"
     inkscape:cx="147.4202"
     inkscape:cy="556.66731"
     inkscape:window-x="0"
     inkscape:window-y="0"
     inkscape:window-maximized="1"
     inkscape:current-layer="svg2" />
  <defs
     id="defs4" />
  <metadata
     id="metadata7">
    <rdf:RDF>
      <cc:Work
         rdf:about="">
        <dc:format>image/svg+xml</dc:format>
        <dc:type
           rdf:resource="http://purl.org/dc/dcmitype/StillImage" />
        <dc:title />
      </cc:Work>
    </rdf:RDF>
  </metadata>
  <g
     transform="translate(0,-112.36234)"
     id="layer1"
     style="fill:#ffffff;fill-opacity:1">
    <path
       id="path3347"
       d="M 449.89416,1030.9057 C 59.190114,1010.0069 -123.22096,540.77024 152.32395,265.43216 418.7488,-0.79269761 870.9983,157.91423 916.86759,533.73179 943.43999,751.44556 787.72665,973.35606 576.70129,1018.5101 l -3.81788,0.817 -3.4417,-14.1081 c -7.92053,-32.46754 -11.10073,-46.29234 -14.45962,-62.85814 -1.95158,-9.625 -4.13352,-20.0312 -4.84877,-23.125 -1.89474,-8.1956 -9.22861,-65.8314 -8.76126,-68.85347 0.34036,-2.20091 1.4826,-2.63609 7.99382,-3.0455 32.08347,-2.01732 55.13425,-16.70013 60.79656,-38.72599 4.10918,-15.98438 19.05336,-31.46209 41.06984,-42.53613 19.54064,-9.82872 62.63859,-19.3066 69.51115,-15.28653 63.15352,36.94127 112.35374,17.87775 112.0797,-43.42734 -0.32898,-73.59771 -42.84651,-87.27593 -112.04612,-36.04606 -39.97429,29.59375 -139.13975,35.5808 -147.73586,8.91945 -1.58298,-4.90969 -2.212,-46.12557 -0.8451,-55.37339 2.35291,-15.91865 6.52468,-37.37055 8.9943,-46.25 9.89306,-35.57043 19.70047,-66.47174 24.20011,-76.25 0.94909,-2.0625 2.1276,-5.15625 2.61892,-6.875 0.49132,-1.71875 2.20047,-6.21875 3.7981,-10 1.59765,-3.78125 4.98694,-11.9375 7.53175,-18.125 7.94789,-19.32459 19.80684,-45.65639 26.60215,-59.06781 1.94149,-3.83178 5.4107,-8.09625 8.32779,-10.23678 85.50898,-62.74577 68.53684,-141.35756 -30.62501,-141.84933 -55.70794,-0.27626 -71.44335,33.61052 -50.11674,107.92822 l 5.17235,18.0243 -2.6607,11.3507 c -1.46337,6.24289 -3.48887,14.44445 -4.50111,18.2257 -1.01223,3.78125 -2.93341,11.375 -4.2693,16.875 -1.33589,5.5 -3.49215,13.65625 -4.79169,18.125 -1.29955,4.46875 -4.7092,16.28125 -7.57699,26.25 -30.95098,107.5887 -66.76798,181.25 -88.13082,181.25 -21.36284,0 -57.17984,-73.6613 -88.13083,-181.25 -2.86778,-9.96875 -6.27743,-21.78125 -7.57698,-26.25 -1.29954,-4.46875 -3.4558,-12.625 -4.79169,-18.125 -1.33589,-5.5 -3.25708,-13.09375 -4.2693,-16.875 -1.01224,-3.78125 -3.03774,-11.98281 -4.50111,-18.2257 l -2.6607,-11.3507 5.17235,-18.0243 c 21.32661,-74.3177 5.5912,-108.20448 -50.11674,-107.92822 -99.16184,0.49177 -116.13397,79.10356 -30.625,141.84933 2.91709,2.14053 6.3863,6.405 8.32779,10.23678 6.79531,13.41142 18.65426,39.74322 26.60214,59.06781 2.54481,6.1875 5.93409,14.34375 7.53175,18.125 1.59763,3.78125 3.30678,8.28125 3.79809,10 0.49133,1.71875 1.66984,4.8125 2.61893,6.875 4.49964,9.77826 14.30705,40.67957 24.20011,76.25 2.46961,8.87945 6.64139,30.33135 8.9943,46.25 1.3669,9.24782 0.73788,50.4637 -0.8451,55.37339 -8.59611,26.66135 -107.76156,20.6743 -147.73585,-8.91945 -69.19961,-51.22987 -111.71715,-37.55165 -112.04614,36.04606 -0.27564,61.66519 43.48759,79.07021 110.88189,44.0987 6.88268,-3.57148 11.99588,-2.86093 51.42209,7.14593 58.50265,14.84866 90.76621,32.25244 106.60484,57.50537 15.10532,24.08374 40.56962,36.875 73.40921,36.875 17.84395,0 22.98766,4.87274 31.00859,29.37496 10.32538,31.542 14.67937,114.705 7.67326,146.56254 -0.64809,2.9469 -6.71815,3.3251 -31.8209,1.9823 z"
       style="fill:#ffffff;fill-opacity:1" />
  </g>
</svg>
