<?xml version="1.0" encoding="UTF-8" standalone="no"?>
<svg
   xmlns:dc="http://purl.org/dc/elements/1.1/"
   xmlns:cc="http://creativecommons.org/ns#"
   xmlns:rdf="http://www.w3.org/1999/02/22-rdf-syntax-ns#"
   xmlns:svg="http://www.w3.org/2000/svg"
   xmlns="http://www.w3.org/2000/svg"
   viewBox="0 0 607.5 607.5"
   height="607.5"
   width="607.5"
   version="1.1"
   id="svg2">
  <metadata
     id="metadata8">
    <rdf:RDF>
      <cc:Work
         rdf:about="">
        <dc:format>image/svg+xml</dc:format>
        <dc:type
           rdf:resource="http://purl.org/dc/dcmitype/StillImage" />
        <dc:title></dc:title>
      </cc:Work>
    </rdf:RDF>
  </metadata>
  <defs
     id="defs6" />
  <path
     id="path4145"
     d="m 291.85,511.2996 c -35.70653,-2.54398 -68.97912,-13.26422 -98.95187,-31.8817 -26.41673,-16.40867 -50.74867,-41.22496 -66.71174,-68.03969 -18.13751,-30.46736 -27.469678,-60.77708 -30.024604,-97.51616 -1.845604,-26.53923 4.297554,-62.13564 15.275324,-88.51252 12.42581,-29.85619 31.94201,-57.39697 54.63248,-77.096 31.3178,-27.18896 68.48164,-44.36685 108.26096,-50.040433 21.55307,-3.074037 37.28583,-3.074037 58.8389,0 33.79872,4.820593 67.6348,18.786513 94.65465,39.068923 30.70272,23.04695 53.33352,52.25376 68.23879,88.06751 10.97777,26.37688 17.12093,61.97329 15.27533,88.51252 -2.55493,36.73908 -11.88711,67.0488 -30.02461,97.51616 -15.96307,26.81473 -40.29501,51.63102 -66.71174,68.03969 -30.51324,18.95321 -63.00432,29.29718 -100.27409,31.92359 -10.55247,0.74364 -11.4766,0.74191 -22.47778,-0.0419 z m 29.41945,-30.7308 c 27.12881,-2.90288 52.24345,-11.41908 75.69721,-25.6684 12.91365,-7.84569 29.11508,-21.14915 37.72347,-30.97586 26.72181,-30.50365 41.43203,-63.38438 45.911,-102.62168 2.90482,-25.44724 -0.88092,-53.90915 -10.67319,-80.24285 -2.91396,-7.83634 -9.95796,-22.10272 -15.05764,-30.49657 -7.84569,-12.91365 -21.14916,-29.11507 -30.97586,-37.72347 -30.50365,-26.7218 -63.38438,-41.43203 -102.62168,-45.911 -11.75231,-1.34153 -23.29321,-1.34153 -35.04552,0 -39.2373,4.47897 -72.11804,19.1892 -102.62168,45.911 -9.8267,8.6084 -23.13017,24.80982 -30.97586,37.72347 -5.09968,8.39385 -12.14369,22.66023 -15.05765,30.49657 -9.79226,26.3337 -13.578,54.79561 -10.67318,80.24285 2.5504,22.34238 8.15358,41.73431 17.47775,60.48835 17.01853,34.23004 41.02165,59.43773 73.75949,77.46107 23.65524,13.02305 49.81205,20.50771 77.68055,22.22797 9.009,0.5561 13.1103,0.40924 25.45279,-0.91145 z M 300.11389,313.56043 c -1.09083,-0.38118 -2.69105,-1.32458 -3.55604,-2.09642 -3.51722,-3.13848 -3.38563,-0.0785 -3.38563,-78.73212 l 0,-73.07401 9.91667,0 9.91666,0 0,67.43333 0,67.43334 33.71667,0 33.71667,0 0,9.91666 0,9.91667 -39.17083,-0.0522 c -25.48069,-0.0339 -39.86401,-0.29443 -41.15417,-0.74526 z"
     style="fill:#fe8500;fill-opacity:1" />
</svg>
