<?xml version="1.0" encoding="UTF-8" standalone="no"?>
<!-- Created with Inkscape (http://www.inkscape.org/) -->

<svg
   xmlns:dc="http://purl.org/dc/elements/1.1/"
   xmlns:cc="http://creativecommons.org/ns#"
   xmlns:rdf="http://www.w3.org/1999/02/22-rdf-syntax-ns#"
   xmlns:svg="http://www.w3.org/2000/svg"
   xmlns="http://www.w3.org/2000/svg"
   xmlns:sodipodi="http://sodipodi.sourceforge.net/DTD/sodipodi-0.dtd"
   xmlns:inkscape="http://www.inkscape.org/namespaces/inkscape"
   id="svg2"
   version="1.1"
   inkscape:version="0.91 r13725"
   width="607.5"
   height="607.5"
   viewBox="0 0 607.5 607.5"
   sodipodi:docname="maintainable.svg">
  <metadata
     id="metadata8">
    <rdf:RDF>
      <cc:Work
         rdf:about="">
        <dc:format>image/svg+xml</dc:format>
        <dc:type
           rdf:resource="http://purl.org/dc/dcmitype/StillImage" />
        <dc:title></dc:title>
      </cc:Work>
    </rdf:RDF>
  </metadata>
  <defs
     id="defs6" />
  <sodipodi:namedview
     pagecolor="#ffffff"
     bordercolor="#666666"
     borderopacity="1"
     objecttolerance="10"
     gridtolerance="10"
     guidetolerance="10"
     inkscape:pageopacity="0"
     inkscape:pageshadow="2"
     inkscape:window-width="1920"
     inkscape:window-height="1027"
     id="namedview4"
     showgrid="false"
     inkscape:zoom="0.54938996"
     inkscape:cx="174.0026"
     inkscape:cy="203.2003"
     inkscape:window-x="0"
     inkscape:window-y="0"
     inkscape:window-maximized="1"
     inkscape:current-layer="svg2" />
  <circle
     style="fill:#000000;fill-opacity:1;stroke:none"
     id="path4180"
     cx="303.75"
     cy="303.75"
     r="299.24524" />
  <path
     style="fill:#ffff77;fill-opacity:1"
     d="M 288.875,563.14937 C 244.24184,559.9694 202.6511,546.5691 165.18516,523.29725 132.16425,502.78641 101.74933,471.76605 81.795491,438.24763 59.123605,400.16344 47.45839,362.27628 44.264732,316.35243 41.957728,283.1784 49.636678,238.68289 63.358888,205.71178 c 15.532258,-37.32023 39.927512,-71.74621 68.290602,-96.37 39.14725,-33.986195 85.60205,-55.458556 135.3262,-62.550535 26.94134,-3.842547 46.60728,-3.842547 73.54862,0 42.2484,6.02574 84.5435,23.483136 118.31831,48.836151 38.37841,28.808694 66.6669,65.317204 85.29849,110.084384 13.72221,32.97111 21.40116,77.46662 19.09416,110.64065 -3.19366,45.92385 -14.85888,83.81101 -37.53076,121.8952 -19.95384,33.51842 -50.36876,64.53878 -83.38967,85.04962 -38.14155,23.69151 -78.7554,36.62147 -125.34262,39.90448 -13.19058,0.92955 -14.34574,0.92739 -28.09722,-0.0524 z m 36.77431,-38.4135 c 33.91101,-3.6286 65.30431,-14.27385 94.62152,-32.0855 16.14206,-9.80711 36.39384,-26.43644 47.15433,-38.71982 33.40226,-38.12956 51.79004,-79.23048 57.38875,-128.2771 3.63103,-31.80905 -1.10115,-67.38644 -13.34148,-100.30357 -3.64245,-9.79542 -12.44746,-27.6284 -18.82206,-38.12071 -9.80711,-16.14206 -26.43644,-36.39384 -38.71982,-47.15433 -38.12956,-33.40226 -79.23048,-51.790038 -128.2771,-57.388751 -14.69039,-1.676918 -29.11651,-1.676918 -43.8069,0 -49.04662,5.598713 -90.14755,23.986491 -128.2771,57.388751 -12.28338,10.76049 -28.91271,31.01227 -38.71982,47.15433 -6.3746,10.49231 -15.179614,28.32529 -18.822063,38.12071 -12.240324,32.91713 -16.972506,68.49452 -13.341478,100.30357 3.188001,27.92797 10.191977,52.16789 21.847181,75.61044 21.27317,42.78754 51.27707,74.29716 92.19937,96.82633 29.56905,16.27881 62.26506,25.63464 97.10069,27.78496 11.26125,0.69513 16.38787,0.51155 31.81598,-1.13931 z M 299.20486,315.97541 c -1.36354,-0.47648 -3.36381,-1.65572 -4.44505,-2.62052 -4.39652,-3.9231 -4.23203,-0.0981 -4.23203,-98.41515 l 0,-91.34252 12.39583,0 12.39583,0 0,84.29167 0,84.29167 42.14584,0 42.14583,0 0,12.39583 0,12.39583 -48.96354,-0.0653 c -31.85086,-0.0424 -49.83001,-0.36803 -51.44271,-0.93157 z"
     id="path4145"
     inkscape:connector-curvature="0" />
</svg>
