<?xml version="1.0" encoding="UTF-8" standalone="no"?>
<!-- Created with Inkscape (http://www.inkscape.org/) -->

<svg
   xmlns:dc="http://purl.org/dc/elements/1.1/"
   xmlns:cc="http://creativecommons.org/ns#"
   xmlns:rdf="http://www.w3.org/1999/02/22-rdf-syntax-ns#"
   xmlns:svg="http://www.w3.org/2000/svg"
   xmlns="http://www.w3.org/2000/svg"
   xmlns:sodipodi="http://sodipodi.sourceforge.net/DTD/sodipodi-0.dtd"
   xmlns:inkscape="http://www.inkscape.org/namespaces/inkscape"
   id="svg2"
   version="1.1"
   inkscape:version="0.91 r13725"
   width="607.5"
   height="607.5"
   viewBox="0 0 607.5 607.5"
   sodipodi:docname="responsive.svg">
  <metadata
     id="metadata8">
    <rdf:RDF>
      <cc:Work
         rdf:about="">
        <dc:format>image/svg+xml</dc:format>
        <dc:type
           rdf:resource="http://purl.org/dc/dcmitype/StillImage" />
        <dc:title />
      </cc:Work>
    </rdf:RDF>
  </metadata>
  <defs
     id="defs6" />
  <sodipodi:namedview
     pagecolor="#ffffff"
     bordercolor="#666666"
     borderopacity="1"
     objecttolerance="10"
     gridtolerance="10"
     guidetolerance="10"
     inkscape:pageopacity="0"
     inkscape:pageshadow="2"
     inkscape:window-width="1920"
     inkscape:window-height="1027"
     id="namedview4"
     showgrid="false"
     inkscape:zoom="1.0987799"
     inkscape:cx="-41.162018"
     inkscape:cy="343.83924"
     inkscape:window-x="0"
     inkscape:window-y="0"
     inkscape:window-maximized="1"
     inkscape:current-layer="svg2" />
  <circle
     style="fill:#000000;fill-opacity:1;stroke:none"
     id="path4180"
     cx="303.75"
     cy="303.75"
     r="299.24524" />
  <path
     style="fill:#55aaff;fill-opacity:1"
     d="m 94.35025,482.33725 c -7.443877,-4.039 -7.203207,-0.67976 -7.203207,-100.54326 0,-79.22981 -0.62546,-89.76999 3.43195,-95.04091 2.52979,-3.28641 4.110878,-6.48093 17.387977,-7.51942 0,0 0.18058,-7.70717 0.18474,-71.50217 0.005,-69.20343 0.0865,-71.6968 2.48858,-75.63643 1.36615,-2.24066 4.31716,-5.19167 6.55782,-6.55782 4.01795,-2.44978 6.68449,-2.4839 194.07393,-2.4839 187.38944,0 190.05597,0.0341 194.07393,2.4839 2.24066,1.36615 5.19167,4.31716 6.55782,6.55782 2.42829,3.9827 2.4839,6.50897 2.4839,112.82393 0,106.31496 -0.0556,108.84122 -2.4839,112.82393 -1.36615,2.24066 -4.31716,5.19167 -6.55782,6.55782 -3.93853,2.40135 -6.43166,2.48406 -75.01143,2.48857 l -70.9375,0.005 0.0339,21.5625 0.0339,21.5625 11.94759,13.75 11.94759,13.75 -36.35652,0.33138 c -19.99609,0.18226 -52.71694,0.18226 -72.71302,0 l -36.35652,-0.33138 11.94759,-13.75 11.94759,-13.75 0.0339,-21.5625 0.0341,-21.5625 -37.5,0 -31.5,0 0,53.18708 c 0,58.35281 -0.0264,58.57313 -7.45909,62.41676 -5.35162,2.76744 -85.17621,3.39745 -90.291362,0.62198 z m 51.9786,-6.11145 c 1.6875,-1.6875 3.06819,-4.52556 3.06819,-6.30681 0,-4.16764 -5.20736,-9.375 -9.375,-9.375 -4.16764,0 -9.375,5.20736 -9.375,9.375 0,4.16764 5.20736,9.375 9.375,9.375 1.78125,0 4.61931,-1.38069 6.30681,-3.06819 z m 38.06819,-98.80681 0,-79.375 -44.375,0 -44.374997,0 0,79.375 0,79.375 44.374997,0 44.375,0 z m 312.5,-132.5 0,-104.375 -185.625,0 -185.625,0 0,69.375 0,69.375 25.06207,0 c 41.50193,0 42.18793,-1.6209 42.18793,40.56292 l 0,29.43708 149,0 155,0 z"
     id="path4178"
     inkscape:connector-curvature="0"
     sodipodi:nodetypes="cssssssssssssscccccsscccccccssccsssssscccccccccccccccsscccc" />
</svg>
