<?xml version="1.0" encoding="UTF-8" standalone="no"?>
<svg
   xmlns:dc="http://purl.org/dc/elements/1.1/"
   xmlns:cc="http://creativecommons.org/ns#"
   xmlns:rdf="http://www.w3.org/1999/02/22-rdf-syntax-ns#"
   xmlns:svg="http://www.w3.org/2000/svg"
   xmlns="http://www.w3.org/2000/svg"
   viewBox="0 0 870.00001 870"
   height="870"
   width="870"
   version="1.1"
   id="svg2">
  <metadata
     id="metadata8">
    <rdf:RDF>
      <cc:Work
         rdf:about="">
        <dc:format>image/svg+xml</dc:format>
        <dc:type
           rdf:resource="http://purl.org/dc/dcmitype/StillImage" />
        <dc:title></dc:title>
      </cc:Work>
    </rdf:RDF>
  </metadata>
  <defs
     id="defs6" />
  <g
     transform="translate(-1.1954152e-6,0.9628103)"
     id="g4199">
    <path
       style="fill:#000000"
       d="m 434.98973,18.074402 -8.85546,5.88672 c -10.88756,7.238041 -28.64264,23.977294 -38.89063,36.666015 -38.92194,48.191853 -62.73173,117.352153 -69.71289,202.488283 -2.87494,35.06018 -1.50376,94.05218 2.92969,126.09375 l 1.60351,11.58984 -4.45898,3.31836 c -28.97039,21.5618 -52.96377,49.41192 -68.09961,79.04492 -23.76924,46.5355 -29.54206,102.55701 -15.81836,153.52149 0.7868,2.92187 1.63705,5.3125 1.88867,5.3125 0.25162,0 2.26352,-3.23438 4.47266,-7.1875 21.47256,-38.42391 53.06553,-69.25592 89.98437,-87.81836 5.49367,-2.76216 9.97975,-5.71861 9.96875,-6.57031 -0.011,-0.8517 -1.64564,-14.20508 -3.63281,-29.67383 -1.98717,-15.46875 -3.49316,-28.25179 -3.3457,-28.40625 0.14745,-0.15445 5.842,13.6268 12.65429,30.625 22.05817,55.04015 27.72313,63.86464 47.75782,74.39258 31.83416,16.72838 75.44413,11.62144 99.19336,-11.61719 8.88762,-8.69651 11.9235,-14.69033 29.4414,-58.11914 7.76488,-19.25 14.12998,-33.59375 14.14258,-31.875 0.0127,1.71875 -1.37142,14.375 -3.07422,28.125 -1.7028,13.75 -3.09947,25.69713 -3.10547,26.54883 -0.006,0.8517 4.4829,3.80815 9.97657,6.57031 36.94147,18.57382 68.50582,49.38744 90.01562,87.875 2.2268,3.98441 4.29764,6.99532 4.60156,6.6914 1.05798,-1.05798 4.17425,-14.00983 6.0586,-25.18554 7.59699,-45.05617 0.32676,-93.12639 -20.14649,-133.20899 -15.32355,-30.0005 -35.98438,-53.94781 -68.94922,-79.91601 l -3.96875,-3.125 2.65821,-18.125 c 2.34053,-15.96679 2.6676,-24.00425 2.7539,-67.5 0.10289,-51.88523 -0.80033,-65.1276 -6.81836,-100 C 531.23555,127.69945 494.42266,59.171454 444.06786,24.351747 l -9.07813,-6.277345 z m 0.01,145.978518 a 46.345341,46.345341 0 0 1 46.3457,46.3457 46.345341,46.345341 0 0 1 -46.3457,46.3457 46.345341,46.345341 0 0 1 -46.3457,-46.3457 46.345341,46.345341 0 0 1 46.3457,-46.3457 z"
       id="path4138" />
    <path
       style="fill:#000000;fill-opacity:1;fill-rule:evenodd;stroke:none;stroke-width:1px;stroke-linecap:butt;stroke-linejoin:miter;stroke-opacity:1"
       d="m 399.15599,624.19486 c 0,0 -85.09241,37.15298 -33.55749,164.1925 -1.19853,-2.39697 30.86624,-51.52375 30.86624,-51.52375 0,0 -6.35081,67.7437 38.50627,113.08249 0.002,0.002 0.002,0.0562 0.004,0.0538 0.008,-0.008 0.0167,-0.0166 0.025,-0.025 0.008,0.008 0.0156,0.0168 0.0238,0.025 0.002,0.002 0.002,-0.0523 0.004,-0.0538 44.85709,-45.33879 38.50745,-113.08249 38.50745,-113.08249 0,0 32.06477,49.12678 30.86624,51.52375 51.53492,-127.03952 -33.55744,-164.1925 -33.55744,-164.1925 z"
       id="path4151" />
  </g>
</svg>
