<?xml version="1.0" standalone="no"?>
<!DOCTYPE svg PUBLIC "-//W3C//DTD SVG 20010904//EN"
 "http://www.w3.org/TR/2001/REC-SVG-20010904/DTD/svg10.dtd">
<svg version="1.0" xmlns="http://www.w3.org/2000/svg"
 width="1000.000000pt" height="1000.000000pt" viewBox="0 0 1000.000000 1000.000000"
 preserveAspectRatio="xMidYMid meet">
<metadata>
Created by potrace 1.11, written by Peter Selinger 2001-2013
</metadata>
<g transform="translate(0.000000,1000.000000) scale(0.100000,-0.100000)"
fill="#000000" stroke="none">
<path d="M4685 9484 c-16 -2 -86 -9 -155 -15 -394 -35 -870 -155 -1251 -315
-1006 -423 -1868 -1242 -2345 -2228 -212 -440 -345 -901 -405 -1406 -26 -221
-32 -663 -11 -875 38 -387 101 -684 222 -1045 176 -531 424 -985 779 -1430
124 -156 447 -488 596 -612 695 -579 1502 -919 2430 -1023 190 -21 524 -31
552 -17 30 17 44 124 50 388 15 614 -80 1181 -222 1327 -41 42 -86 54 -230 62
-334 18 -525 122 -714 387 -182 257 -493 416 -1117 572 -122 30 -259 61 -306
67 l-84 12 -112 -51 c-423 -194 -715 -200 -897 -18 -57 57 -105 147 -132 246
-28 102 -25 414 5 534 77 308 261 424 556 350 133 -34 329 -136 506 -264 208
-150 499 -243 853 -272 320 -26 584 33 644 144 16 30 18 63 18 318 l0 285 -37
185 c-61 305 -196 755 -321 1076 -166 423 -376 885 -425 937 -15 16 -67 62
-117 102 -479 387 -607 842 -319 1129 153 154 438 237 758 223 197 -9 307 -47
399 -139 104 -104 142 -231 134 -443 -6 -154 -31 -291 -94 -512 l-45 -163 62
-252 c326 -1315 731 -2305 1002 -2450 40 -22 58 -22 103 -4 115 49 276 296
443 681 190 439 383 1040 555 1727 l75 298 -24 82 c-83 282 -116 460 -117 628
-1 315 125 484 404 536 102 20 339 14 465 -10 364 -72 574 -277 574 -560 0
-111 -22 -193 -80 -311 -85 -172 -213 -319 -416 -483 -94 -75 -105 -87 -147
-169 -89 -174 -290 -640 -400 -928 -83 -219 -217 -662 -262 -864 -58 -264 -68
-353 -68 -588 1 -282 5 -315 49 -363 74 -81 218 -115 484 -114 201 1 361 22
539 70 197 54 283 95 489 234 409 274 691 328 872 164 104 -94 159 -251 175
-494 24 -367 -120 -622 -387 -685 -179 -42 -419 5 -648 127 -88 48 -100 51
-162 50 -87 -2 -283 -42 -428 -88 -188 -60 -320 -133 -433 -242 -86 -83 -127
-146 -163 -247 -37 -105 -74 -164 -140 -224 -100 -88 -262 -150 -448 -169 -54
-6 -92 -15 -97 -23 -4 -8 -6 -32 -3 -54 57 -486 71 -574 134 -875 53 -251 173
-757 182 -765 8 -8 293 67 433 113 861 285 1648 884 2198 1675 657 943 940
2053 796 3130 -120 902 -498 1740 -1087 2407 -778 882 -1885 1430 -3068 1519
-127 10 -546 13 -619 5z"/>
</g>
</svg>
