<?xml version="1.0" standalone="no"?>
<!DOCTYPE svg PUBLIC "-//W3C//DTD SVG 20010904//EN"
 "http://www.w3.org/TR/2001/REC-SVG-20010904/DTD/svg10.dtd">
<svg version="1.0" xmlns="http://www.w3.org/2000/svg"
 width="16.000000pt" height="16.000000pt" viewBox="0 0 16.000000 16.000000"
 preserveAspectRatio="xMidYMid meet">
<metadata>
Created by potrace 1.11, written by Peter Selinger 2001-2013
</metadata>
<g transform="translate(0.000000,16.000000) scale(0.006154,-0.006154)"
fill="#000000" stroke="none">
<path d="M0 1300 l0 -1300 1300 0 1300 0 0 1300 0 1300 -1300 0 -1300 0 0
-1300z m1605 1201 c138 -37 289 -105 402 -183 94 -64 242 -209 305 -299 227
-321 290 -742 166 -1104 -113 -330 -347 -597 -652 -741 -76 -36 -235 -89 -242
-81 -5 6 -65 291 -74 352 -16 118 -15 125 23 125 37 0 106 29 125 52 7 9 25
40 40 69 33 67 102 111 206 134 l71 16 60 -28 c113 -52 206 -34 247 48 20 39
24 151 7 196 -36 97 -133 106 -255 23 -101 -67 -181 -93 -299 -94 -132 -2
-155 15 -155 114 0 135 46 309 145 543 54 128 62 142 126 203 81 79 114 145
106 212 -10 86 -99 142 -229 142 -149 0 -193 -78 -149 -264 l21 -89 -30 -116
c-75 -289 -190 -570 -252 -615 l-28 -20 -27 20 c-62 45 -170 309 -247 602
l-35 133 20 76 c35 138 19 220 -51 256 -52 27 -180 20 -240 -14 -125 -69 -116
-198 22 -323 52 -47 66 -68 109 -166 59 -132 122 -315 144 -418 17 -83 20
-214 5 -242 -6 -12 -30 -23 -67 -30 -107 -23 -254 10 -358 80 -177 118 -285
76 -285 -112 0 -157 98 -211 262 -144 66 27 67 27 133 11 188 -43 291 -95 350
-175 42 -58 96 -86 184 -98 85 -12 100 -34 122 -187 10 -69 12 -266 3 -289
-13 -33 -244 -10 -404 39 -655 204 -1027 929 -810 1577 143 425 525 755 965
833 55 10 131 13 240 11 140 -4 175 -8 280 -35z"/>
</g>
</svg>
