<?xml version="1.0" standalone="no"?>
<!DOCTYPE svg PUBLIC "-//W3C//DTD SVG 20010904//EN"
 "http://www.w3.org/TR/2001/REC-SVG-20010904/DTD/svg10.dtd">
<svg version="1.0" xmlns="http://www.w3.org/2000/svg"
 width="1000.000000pt" height="1000.000000pt" viewBox="0 0 1000.000000 1000.000000"
 preserveAspectRatio="xMidYMid meet">
<metadata>
Created by potrace 1.11, written by Peter Selinger 2001-2013
</metadata>
<g transform="translate(0.000000,1000.000000) scale(0.100000,-0.100000)"
fill="#000000" stroke="none">
<path d="M4928 9495 c-2 -1 -73 -5 -158 -9 -85 -4 -168 -8 -185 -10 -16 -2
-63 -7 -103 -11 -41 -3 -81 -8 -90 -10 -9 -1 -37 -6 -62 -10 -90 -14 -107 -16
-210 -36 -541 -103 -1096 -331 -1575 -648 -55 -36 -101 -69 -103 -73 -2 -5
-10 -8 -17 -8 -7 0 -15 -3 -17 -7 -1 -5 -39 -35 -83 -68 -170 -127 -318 -257
-510 -450 -277 -277 -493 -550 -690 -875 -63 -103 -217 -401 -255 -490 -12
-30 -30 -73 -40 -95 -10 -22 -23 -56 -30 -75 -7 -19 -19 -48 -26 -65 -27 -63
-116 -346 -130 -415 -3 -14 -11 -47 -19 -75 -8 -27 -16 -61 -19 -75 -2 -14
-11 -59 -20 -100 -8 -41 -20 -106 -26 -145 -6 -38 -13 -81 -15 -95 -4 -24 -12
-84 -20 -165 -25 -244 -25 -774 0 -906 2 -11 7 -50 11 -87 3 -36 8 -75 10 -87
2 -11 7 -38 9 -59 19 -137 90 -453 137 -606 145 -468 334 -867 591 -1250 50
-74 94 -139 99 -145 183 -231 254 -318 288 -355 140 -150 318 -325 416 -406
25 -22 58 -49 73 -62 113 -99 449 -330 619 -426 218 -123 506 -254 731 -331
198 -68 455 -138 591 -161 14 -2 45 -9 70 -14 75 -16 158 -29 293 -45 23 -3
58 -7 77 -10 41 -5 175 -16 270 -21 126 -7 270 -5 289 5 33 18 46 152 46 471
0 251 -6 415 -20 530 -2 19 -7 58 -10 85 -22 182 -60 368 -92 445 -3 8 -7 21
-9 28 -7 36 -59 125 -90 156 -44 44 -80 54 -221 60 -226 11 -397 67 -533 175
-65 53 -105 96 -167 186 -111 159 -247 270 -453 369 -192 92 -338 140 -695
231 -241 61 -259 65 -340 69 -55 3 -69 -1 -165 -46 -101 -49 -298 -119 -370
-133 -62 -12 -246 -13 -291 -3 -252 61 -381 267 -380 610 2 313 77 516 226
610 56 35 104 49 181 53 178 8 406 -86 684 -285 98 -69 208 -125 331 -168 91
-32 281 -77 364 -87 28 -3 61 -8 75 -11 44 -10 342 -12 410 -3 145 19 262 66
300 119 12 17 25 56 30 88 13 94 9 489 -5 567 -7 39 -16 84 -19 100 -2 17 -9
55 -15 86 -13 79 -48 220 -77 319 -57 195 -68 232 -111 370 -25 80 -60 183
-78 230 -18 47 -51 132 -73 190 -23 58 -71 175 -107 260 -87 202 -88 204 -90
210 -5 13 -40 90 -95 205 -33 70 -60 130 -60 132 0 16 -73 92 -134 141 -372
296 -550 625 -491 907 62 294 380 473 843 475 338 2 523 -120 578 -380 12 -57
15 -108 11 -210 -4 -74 -8 -146 -11 -160 -3 -14 -8 -36 -11 -50 -3 -14 -7 -36
-10 -50 -3 -14 -7 -38 -10 -55 -4 -16 -27 -103 -52 -193 l-45 -162 71 -288
c201 -801 429 -1485 642 -1917 138 -281 217 -399 320 -478 100 -76 199 -19
337 191 51 77 227 412 218 412 -3 0 9 27 25 60 16 33 29 66 29 73 0 7 4 17 9
22 16 18 122 305 206 560 72 215 238 768 249 830 2 11 18 72 34 135 17 63 33
126 36 140 3 14 18 78 34 143 l30 117 -25 83 c-164 561 -158 859 18 1035 98
98 209 133 434 137 197 4 290 -8 437 -55 220 -70 377 -215 424 -393 18 -69 18
-195 -2 -276 -21 -87 -101 -249 -166 -336 -55 -73 -194 -217 -263 -272 -166
-132 -150 -112 -235 -286 -103 -212 -262 -585 -368 -867 -37 -96 -147 -432
-157 -476 -2 -11 -13 -50 -25 -89 -49 -165 -79 -293 -116 -495 -28 -153 -38
-491 -20 -644 11 -89 69 -142 201 -180 126 -37 440 -43 620 -11 307 55 484
116 646 226 35 23 106 71 156 105 267 179 531 248 698 184 184 -71 288 -313
280 -655 -4 -147 -8 -175 -41 -267 -53 -146 -143 -245 -274 -299 -63 -27 -92
-32 -182 -37 -64 -3 -132 0 -170 7 -104 20 -267 79 -368 133 -89 48 -99 51
-165 50 -38 0 -91 -5 -118 -11 -26 -6 -64 -14 -85 -17 -20 -3 -89 -21 -152
-40 -63 -19 -119 -36 -125 -37 -114 -33 -294 -139 -380 -224 -84 -83 -126
-146 -155 -233 -37 -111 -63 -154 -130 -220 -108 -108 -244 -163 -450 -186
-116 -12 -123 -18 -115 -82 4 -24 16 -129 30 -257 3 -22 9 -69 15 -105 5 -36
12 -87 15 -115 8 -70 89 -470 131 -650 20 -82 38 -159 40 -170 14 -69 82 -336
86 -341 8 -8 313 73 458 122 242 82 557 225 733 333 37 23 70 41 72 41 3 0 78
49 168 110 311 210 560 425 827 716 199 217 399 487 554 749 42 72 81 137 86
145 33 53 196 396 239 502 98 244 224 662 247 818 2 19 9 55 14 80 9 44 20
114 25 155 2 11 6 45 10 75 21 160 30 309 29 530 0 253 -6 337 -45 600 -31
213 -53 326 -100 502 -16 62 -31 120 -34 128 -11 43 -84 268 -95 295 -5 11
-23 58 -41 104 -17 45 -37 95 -45 110 -8 14 -14 30 -14 34 0 13 -143 303 -201
407 -77 139 -240 390 -321 495 -49 63 -199 248 -227 279 -58 66 -342 348 -396
394 -27 24 -59 51 -70 61 -46 41 -217 172 -310 238 -256 181 -567 354 -860
478 -247 104 -652 229 -880 271 -187 34 -318 53 -485 69 -25 3 -126 7 -225 10
-99 3 -188 8 -197 9 -9 2 -18 3 -20 1z"/>
</g>
</svg>
