<?xml version="1.0" standalone="no"?>
<!DOCTYPE svg PUBLIC "-//W3C//DTD SVG 20010904//EN"
 "http://www.w3.org/TR/2001/REC-SVG-20010904/DTD/svg10.dtd">
<svg version="1.0" xmlns="http://www.w3.org/2000/svg"
 width="700.000000pt" height="700.000000pt" viewBox="0 0 700.000000 700.000000"
 preserveAspectRatio="xMidYMid meet">
<metadata>
Created by potrace 1.11, written by Peter Selinger 2001-2013
</metadata>
<g transform="translate(0.000000,700.000000) scale(0.100000,-0.100000)"
fill="#000000" stroke="none">
<path d="M0 3500 l0 -3500 3500 0 3500 0 0 3500 0 3500 -3500 0 -3500 0 0
-3500z m3785 3329 c901 -79 1766 -543 2330 -1249 414 -518 670 -1173 725
-1855 50 -618 -110 -1297 -439 -1870 -426 -738 -1068 -1277 -1819 -1524 -124
-41 -309 -88 -316 -80 -6 7 -155 661 -170 752 -17 99 -54 393 -58 461 -3 57
-13 51 137 76 88 14 146 35 210 76 86 54 126 107 166 216 70 196 306 343 644
404 126 22 151 19 251 -30 219 -110 437 -127 569 -46 75 46 138 135 166 235
19 67 19 311 0 385 -49 194 -142 280 -304 280 -133 0 -256 -51 -466 -192 -57
-39 -137 -86 -177 -104 -151 -70 -382 -115 -593 -115 -150 0 -217 12 -291 49
-85 42 -90 57 -90 292 0 196 10 283 55 476 29 128 136 478 187 614 69 185 219
533 284 661 51 100 59 110 138 173 272 215 402 478 340 686 -21 71 -51 117
-114 173 -96 86 -214 129 -412 149 -201 20 -349 -16 -436 -105 -121 -124 -129
-328 -27 -701 l35 -128 -65 -256 c-100 -395 -219 -781 -337 -1087 -70 -184
-217 -477 -280 -560 -124 -162 -201 -154 -328 37 -187 280 -410 884 -595 1614
l-63 250 28 101 c56 200 73 300 73 433 1 135 -15 199 -67 269 -82 110 -248
157 -477 132 -249 -27 -417 -118 -489 -265 -104 -211 10 -487 302 -729 l109
-90 56 -116 c154 -320 289 -666 382 -975 117 -389 150 -601 134 -848 -10 -152
-18 -169 -88 -202 -141 -67 -457 -63 -723 10 -127 34 -217 77 -352 168 -201
136 -325 186 -457 186 -158 -1 -243 -75 -295 -256 -18 -65 -22 -104 -22 -224
0 -154 8 -198 51 -285 104 -211 358 -243 697 -88 95 44 102 45 170 40 122 -9
491 -111 674 -185 173 -71 316 -179 408 -308 125 -175 276 -252 526 -269 134
-9 160 -23 205 -115 56 -114 91 -284 113 -546 13 -160 11 -480 -3 -579 l-12
-80 -120 -3 c-290 -7 -719 65 -1045 176 -973 332 -1721 1077 -2075 2069 -354
988 -215 2087 371 2945 180 264 440 548 672 737 699 566 1515 818 2397 740z"/>
</g>
</svg>
